<mxfile host="app.diagrams.net" modified="2021-12-27T15:44:31.342Z" agent="5.0 (Macintosh; Intel Mac OS X 10_15_2) AppleWebKit/605.1.15 (KHTML, like Gecko) Version/13.0.4 Safari/605.1.15" etag="qKGrDfYW2Iy-W7k-z9si" version="16.1.0" type="github">
  <diagram id="UfmZcZUgszk8OOR1oBgz" name="Page-1">
    <mxGraphModel dx="920" dy="559" grid="1" gridSize="10" guides="1" tooltips="1" connect="1" arrows="1" fold="1" page="1" pageScale="1" pageWidth="827" pageHeight="1169" math="0" shadow="0">
      <root>
        <mxCell id="0" />
        <mxCell id="1" parent="0" />
        <mxCell id="yg2f-OdLsY0NM2jIDbTP-5" value="浓缩利润表（近9个月, 美元）" style="swimlane;fontStyle=0;childLayout=stackLayout;horizontal=1;startSize=30;horizontalStack=0;resizeParent=1;resizeParentMax=0;resizeLast=0;collapsible=1;marginBottom=0;" parent="1" vertex="1">
          <mxGeometry x="270" y="350" width="230" height="180" as="geometry" />
        </mxCell>
        <mxCell id="yg2f-OdLsY0NM2jIDbTP-6" value="保险业务税前利润 155亿" style="text;strokeColor=#82b366;fillColor=#d5e8d4;align=left;verticalAlign=middle;spacingLeft=4;spacingRight=4;overflow=hidden;points=[[0,0.5],[1,0.5]];portConstraint=eastwest;rotatable=0;" parent="yg2f-OdLsY0NM2jIDbTP-5" vertex="1">
          <mxGeometry y="30" width="230" height="30" as="geometry" />
        </mxCell>
        <mxCell id="yg2f-OdLsY0NM2jIDbTP-7" value="铁路与能源税前利润 84亿" style="text;strokeColor=#82b366;fillColor=#d5e8d4;align=left;verticalAlign=middle;spacingLeft=4;spacingRight=4;overflow=hidden;points=[[0,0.5],[1,0.5]];portConstraint=eastwest;rotatable=0;" parent="yg2f-OdLsY0NM2jIDbTP-5" vertex="1">
          <mxGeometry y="60" width="230" height="30" as="geometry" />
        </mxCell>
        <mxCell id="2Ga6e5PTmOSNsQAfKh1p-3" value="投资回报 32亿**" style="text;strokeColor=#82b366;fillColor=#d5e8d4;align=left;verticalAlign=middle;spacingLeft=4;spacingRight=4;overflow=hidden;points=[[0,0.5],[1,0.5]];portConstraint=eastwest;rotatable=0;" parent="yg2f-OdLsY0NM2jIDbTP-5" vertex="1">
          <mxGeometry y="90" width="230" height="30" as="geometry" />
        </mxCell>
        <mxCell id="yg2f-OdLsY0NM2jIDbTP-30" value="税费57亿***（按法定税率21%）" style="text;strokeColor=#b85450;fillColor=#f8cecc;align=left;verticalAlign=middle;spacingLeft=4;spacingRight=4;overflow=hidden;points=[[0,0.5],[1,0.5]];portConstraint=eastwest;rotatable=0;" parent="yg2f-OdLsY0NM2jIDbTP-5" vertex="1">
          <mxGeometry y="120" width="230" height="30" as="geometry" />
        </mxCell>
        <mxCell id="yg2f-OdLsY0NM2jIDbTP-28" value="经调整净利润214亿（年化为285亿）" style="text;strokeColor=#6c8ebf;fillColor=#dae8fc;align=left;verticalAlign=middle;spacingLeft=4;spacingRight=4;overflow=hidden;points=[[0,0.5],[1,0.5]];portConstraint=eastwest;rotatable=0;" parent="yg2f-OdLsY0NM2jIDbTP-5" vertex="1">
          <mxGeometry y="150" width="230" height="30" as="geometry" />
        </mxCell>
        <mxCell id="yg2f-OdLsY0NM2jIDbTP-32" value="伯克希尔简化利润表*&lt;br&gt;（2021年前9月）" style="text;html=1;strokeColor=none;fillColor=none;align=center;verticalAlign=middle;whiteSpace=wrap;rounded=0;fontSize=17;" parent="1" vertex="1">
          <mxGeometry x="251" y="310" width="268" height="30" as="geometry" />
        </mxCell>
        <mxCell id="_scnfwicN0OqMZllfAQ0-4" value="&lt;span&gt;*简化作用在于更好反映伯克希尔的长期盈利能力&lt;/span&gt;&lt;span&gt;&lt;br&gt;*&lt;/span&gt;&lt;span&gt;*以3200亿美元的股票，每年回报10%来计算&lt;/span&gt;&lt;span&gt;&lt;br&gt;&lt;/span&gt;" style="text;html=1;strokeColor=none;fillColor=none;align=left;verticalAlign=middle;whiteSpace=wrap;rounded=0;" parent="1" vertex="1">
          <mxGeometry x="270" y="530" width="370" height="60" as="geometry" />
        </mxCell>
      </root>
    </mxGraphModel>
  </diagram>
</mxfile>
